<mxfile host="app.diagrams.net" agent="Mozilla/5.0 (Macintosh; Intel Mac OS X 10_15_7) AppleWebKit/537.36 (KHTML, like Gecko) Chrome/133.0.0.0 Safari/537.36" version="26.0.11">
  <diagram id="C5RBs43oDa-KdzZeNtuy" name="Page-1">
    <mxGraphModel dx="1224" dy="3255" grid="1" gridSize="10" guides="1" tooltips="1" connect="1" arrows="1" fold="1" page="1" pageScale="1" pageWidth="1169" pageHeight="827" math="0" shadow="0">
      <root>
        <mxCell id="WIyWlLk6GJQsqaUBKTNV-0" />
        <mxCell id="WIyWlLk6GJQsqaUBKTNV-1" parent="WIyWlLk6GJQsqaUBKTNV-0" />
        <mxCell id="hZAI1_AdC-2y4Ru0i8en-6" style="edgeStyle=orthogonalEdgeStyle;rounded=0;orthogonalLoop=1;jettySize=auto;html=1;exitX=0.5;exitY=1;exitDx=0;exitDy=0;entryX=0.5;entryY=0;entryDx=0;entryDy=0;" parent="WIyWlLk6GJQsqaUBKTNV-1" source="kqOdI_GbfpD3FpPk4naM-20" target="kqOdI_GbfpD3FpPk4naM-47" edge="1">
          <mxGeometry relative="1" as="geometry" />
        </mxCell>
        <mxCell id="kqOdI_GbfpD3FpPk4naM-20" value="GameRules" style="swimlane;startSize=23;fillColor=#d5e8d4;strokeColor=#82b366;" parent="WIyWlLk6GJQsqaUBKTNV-1" vertex="1">
          <mxGeometry x="80" y="-2390" width="420" height="580" as="geometry" />
        </mxCell>
        <mxCell id="kqOdI_GbfpD3FpPk4naM-73" value="Class Placement" style="swimlane;fontStyle=0;childLayout=stackLayout;horizontal=1;startSize=26;fillColor=#dae8fc;horizontalStack=0;resizeParent=1;resizeParentMax=0;resizeLast=0;collapsible=1;marginBottom=0;html=1;strokeColor=#6c8ebf;" parent="kqOdI_GbfpD3FpPk4naM-20" vertex="1">
          <mxGeometry x="12" y="30" width="140" height="172" as="geometry">
            <mxRectangle x="12" y="30" width="130" height="30" as="alternateBounds" />
          </mxGeometry>
        </mxCell>
        <mxCell id="kqOdI_GbfpD3FpPk4naM-74" value="&lt;div&gt;VARIABLES&lt;/div&gt;&lt;div&gt;isCapture: boolean&lt;/div&gt;&lt;div&gt;&lt;br&gt;&lt;/div&gt;" style="text;strokeColor=none;fillColor=none;align=left;verticalAlign=top;spacingLeft=4;spacingRight=4;overflow=hidden;rotatable=0;points=[[0,0.5],[1,0.5]];portConstraint=eastwest;whiteSpace=wrap;html=1;" parent="kqOdI_GbfpD3FpPk4naM-73" vertex="1">
          <mxGeometry y="26" width="140" height="44" as="geometry" />
        </mxCell>
        <mxCell id="kqOdI_GbfpD3FpPk4naM-76" value="&lt;div&gt;METHODS:&lt;/div&gt;&lt;div&gt;&lt;br&gt;&lt;/div&gt;i&lt;span style=&quot;background-color: transparent; color: light-dark(rgb(0, 0, 0), rgb(255, 255, 255));&quot;&gt;sValid()&lt;/span&gt;&lt;div&gt;removeStone()&lt;/div&gt;&lt;div&gt;addStone()&lt;/div&gt;&lt;div&gt;&lt;br&gt;&lt;div&gt;&lt;div&gt;&lt;div&gt;&lt;br&gt;&lt;/div&gt;&lt;div&gt;&lt;br&gt;&lt;/div&gt;&lt;div&gt;&lt;br&gt;&lt;/div&gt;&lt;/div&gt;&lt;/div&gt;&lt;/div&gt;" style="text;strokeColor=none;fillColor=none;align=left;verticalAlign=top;spacingLeft=4;spacingRight=4;overflow=hidden;rotatable=0;points=[[0,0.5],[1,0.5]];portConstraint=eastwest;whiteSpace=wrap;html=1;" parent="kqOdI_GbfpD3FpPk4naM-73" vertex="1">
          <mxGeometry y="70" width="140" height="102" as="geometry" />
        </mxCell>
        <mxCell id="IKeAuI4-IgdpFIsU4fWA-3" value="" style="edgeStyle=orthogonalEdgeStyle;rounded=0;orthogonalLoop=1;jettySize=auto;html=1;" parent="kqOdI_GbfpD3FpPk4naM-20" edge="1">
          <mxGeometry relative="1" as="geometry">
            <mxPoint x="241" y="60" as="sourcePoint" />
            <mxPoint x="241" y="60" as="targetPoint" />
          </mxGeometry>
        </mxCell>
        <mxCell id="IKeAuI4-IgdpFIsU4fWA-21" value="Class Stone" style="swimlane;fontStyle=0;childLayout=stackLayout;horizontal=1;startSize=26;fillColor=#dae8fc;horizontalStack=0;resizeParent=1;resizeParentMax=0;resizeLast=0;collapsible=1;marginBottom=0;html=1;strokeColor=#6c8ebf;" parent="kqOdI_GbfpD3FpPk4naM-20" vertex="1">
          <mxGeometry x="20" y="373" width="230" height="190" as="geometry">
            <mxRectangle x="12" y="30" width="130" height="30" as="alternateBounds" />
          </mxGeometry>
        </mxCell>
        <mxCell id="IKeAuI4-IgdpFIsU4fWA-22" value="&lt;div&gt;VARIABLES:&lt;/div&gt;&lt;div&gt;Position: coordinate&lt;/div&gt;&lt;div&gt;isActive: boolean (true until captured)&lt;/div&gt;&lt;div&gt;color&lt;/div&gt;&lt;div&gt;&lt;br&gt;&lt;/div&gt;&lt;div&gt;METHODS:&lt;/div&gt;&lt;div&gt;checkGroup()&lt;/div&gt;&lt;div&gt;&lt;br&gt;&lt;/div&gt;" style="text;strokeColor=none;fillColor=none;align=left;verticalAlign=top;spacingLeft=4;spacingRight=4;overflow=hidden;rotatable=0;points=[[0,0.5],[1,0.5]];portConstraint=eastwest;whiteSpace=wrap;html=1;" parent="IKeAuI4-IgdpFIsU4fWA-21" vertex="1">
          <mxGeometry y="26" width="230" height="164" as="geometry" />
        </mxCell>
        <mxCell id="IKeAuI4-IgdpFIsU4fWA-34" value="Class Space" style="swimlane;fontStyle=0;childLayout=stackLayout;horizontal=1;startSize=26;fillColor=#dae8fc;horizontalStack=0;resizeParent=1;resizeParentMax=0;resizeLast=0;collapsible=1;marginBottom=0;html=1;strokeColor=#6c8ebf;" parent="kqOdI_GbfpD3FpPk4naM-20" vertex="1">
          <mxGeometry x="270" y="373" width="140" height="160" as="geometry">
            <mxRectangle x="12" y="30" width="130" height="30" as="alternateBounds" />
          </mxGeometry>
        </mxCell>
        <mxCell id="IKeAuI4-IgdpFIsU4fWA-35" value="&lt;div&gt;isEmpty()&lt;/div&gt;cords: coordinate&lt;div&gt;addStone()&lt;/div&gt;&lt;div&gt;removeStone()&lt;/div&gt;&lt;div&gt;checkNeighBor()&lt;/div&gt;" style="text;strokeColor=none;fillColor=none;align=left;verticalAlign=top;spacingLeft=4;spacingRight=4;overflow=hidden;rotatable=0;points=[[0,0.5],[1,0.5]];portConstraint=eastwest;whiteSpace=wrap;html=1;" parent="IKeAuI4-IgdpFIsU4fWA-34" vertex="1">
          <mxGeometry y="26" width="140" height="134" as="geometry" />
        </mxCell>
        <mxCell id="IKeAuI4-IgdpFIsU4fWA-32" value="Class Coordinate" style="swimlane;fontStyle=0;childLayout=stackLayout;horizontal=1;startSize=26;fillColor=#dae8fc;horizontalStack=0;resizeParent=1;resizeParentMax=0;resizeLast=0;collapsible=1;marginBottom=0;html=1;strokeColor=#6c8ebf;" parent="kqOdI_GbfpD3FpPk4naM-20" vertex="1">
          <mxGeometry x="152" y="243" width="140" height="80" as="geometry">
            <mxRectangle x="12" y="30" width="130" height="30" as="alternateBounds" />
          </mxGeometry>
        </mxCell>
        <mxCell id="XhUrj2FuMBCzPirkV3zL-3" style="edgeStyle=orthogonalEdgeStyle;rounded=0;orthogonalLoop=1;jettySize=auto;html=1;" edge="1" parent="IKeAuI4-IgdpFIsU4fWA-32" source="IKeAuI4-IgdpFIsU4fWA-33">
          <mxGeometry relative="1" as="geometry">
            <mxPoint x="-52" y="127" as="targetPoint" />
          </mxGeometry>
        </mxCell>
        <mxCell id="IKeAuI4-IgdpFIsU4fWA-33" value="int x&lt;div&gt;int y&lt;/div&gt;&lt;div&gt;int z&lt;/div&gt;&lt;div&gt;&lt;br&gt;&lt;/div&gt;" style="text;strokeColor=none;fillColor=none;align=left;verticalAlign=top;spacingLeft=4;spacingRight=4;overflow=hidden;rotatable=0;points=[[0,0.5],[1,0.5]];portConstraint=eastwest;whiteSpace=wrap;html=1;" parent="IKeAuI4-IgdpFIsU4fWA-32" vertex="1">
          <mxGeometry y="26" width="140" height="54" as="geometry" />
        </mxCell>
        <mxCell id="XhUrj2FuMBCzPirkV3zL-2" style="edgeStyle=orthogonalEdgeStyle;rounded=0;orthogonalLoop=1;jettySize=auto;html=1;entryX=0.5;entryY=0;entryDx=0;entryDy=0;" edge="1" parent="kqOdI_GbfpD3FpPk4naM-20" source="IKeAuI4-IgdpFIsU4fWA-33" target="IKeAuI4-IgdpFIsU4fWA-34">
          <mxGeometry relative="1" as="geometry">
            <mxPoint x="340" y="296" as="targetPoint" />
          </mxGeometry>
        </mxCell>
        <mxCell id="kqOdI_GbfpD3FpPk4naM-22" value="Board UI" style="swimlane;fillColor=#d5e8d4;strokeColor=#82b366;" parent="WIyWlLk6GJQsqaUBKTNV-1" vertex="1">
          <mxGeometry x="660" y="-1780" width="360" height="250" as="geometry" />
        </mxCell>
        <mxCell id="IKeAuI4-IgdpFIsU4fWA-18" value="Class Hexagon" style="swimlane;fontStyle=0;childLayout=stackLayout;horizontal=1;startSize=26;fillColor=#dae8fc;horizontalStack=0;resizeParent=1;resizeParentMax=0;resizeLast=0;collapsible=1;marginBottom=0;html=1;strokeColor=#6c8ebf;" parent="kqOdI_GbfpD3FpPk4naM-22" vertex="1">
          <mxGeometry x="190" y="26" width="140" height="80" as="geometry">
            <mxRectangle x="12" y="30" width="130" height="30" as="alternateBounds" />
          </mxGeometry>
        </mxCell>
        <mxCell id="IKeAuI4-IgdpFIsU4fWA-19" value="int x&lt;div&gt;int y&lt;/div&gt;&lt;div&gt;int z&lt;/div&gt;" style="text;strokeColor=none;fillColor=none;align=left;verticalAlign=top;spacingLeft=4;spacingRight=4;overflow=hidden;rotatable=0;points=[[0,0.5],[1,0.5]];portConstraint=eastwest;whiteSpace=wrap;html=1;" parent="IKeAuI4-IgdpFIsU4fWA-18" vertex="1">
          <mxGeometry y="26" width="140" height="54" as="geometry" />
        </mxCell>
        <mxCell id="kqOdI_GbfpD3FpPk4naM-65" value="Board Rendering" style="swimlane;fontStyle=0;childLayout=stackLayout;horizontal=1;startSize=26;fillColor=#dae8fc;horizontalStack=0;resizeParent=1;resizeParentMax=0;resizeLast=0;collapsible=1;marginBottom=0;html=1;strokeColor=#6c8ebf;" parent="kqOdI_GbfpD3FpPk4naM-22" vertex="1">
          <mxGeometry x="6" y="126" width="140" height="104" as="geometry" />
        </mxCell>
        <mxCell id="kqOdI_GbfpD3FpPk4naM-66" value="renderBoard()" style="text;strokeColor=none;fillColor=none;align=left;verticalAlign=top;spacingLeft=4;spacingRight=4;overflow=hidden;rotatable=0;points=[[0,0.5],[1,0.5]];portConstraint=eastwest;whiteSpace=wrap;html=1;" parent="kqOdI_GbfpD3FpPk4naM-65" vertex="1">
          <mxGeometry y="26" width="140" height="26" as="geometry" />
        </mxCell>
        <mxCell id="kqOdI_GbfpD3FpPk4naM-67" value="numberBoard()" style="text;strokeColor=none;fillColor=none;align=left;verticalAlign=top;spacingLeft=4;spacingRight=4;overflow=hidden;rotatable=0;points=[[0,0.5],[1,0.5]];portConstraint=eastwest;whiteSpace=wrap;html=1;" parent="kqOdI_GbfpD3FpPk4naM-65" vertex="1">
          <mxGeometry y="52" width="140" height="26" as="geometry" />
        </mxCell>
        <mxCell id="kqOdI_GbfpD3FpPk4naM-68" value="updateBoard()" style="text;strokeColor=none;fillColor=none;align=left;verticalAlign=top;spacingLeft=4;spacingRight=4;overflow=hidden;rotatable=0;points=[[0,0.5],[1,0.5]];portConstraint=eastwest;whiteSpace=wrap;html=1;" parent="kqOdI_GbfpD3FpPk4naM-65" vertex="1">
          <mxGeometry y="78" width="140" height="26" as="geometry" />
        </mxCell>
        <mxCell id="XhUrj2FuMBCzPirkV3zL-6" value="Board&amp;nbsp;" style="swimlane;fontStyle=0;childLayout=stackLayout;horizontal=1;startSize=26;fillColor=#dae8fc;horizontalStack=0;resizeParent=1;resizeParentMax=0;resizeLast=0;collapsible=1;marginBottom=0;html=1;strokeColor=#6c8ebf;" vertex="1" parent="kqOdI_GbfpD3FpPk4naM-22">
          <mxGeometry x="170" y="110" width="180" height="120" as="geometry" />
        </mxCell>
        <mxCell id="XhUrj2FuMBCzPirkV3zL-9" value="&lt;div&gt;numberBoard()&lt;/div&gt;updateBoard()&lt;div&gt;hexagons: arrayList&amp;lt;Hexagon&amp;gt;&lt;/div&gt;&lt;div&gt;blueStones: arrayList&amp;lt;Stone&amp;gt;&lt;/div&gt;&lt;div&gt;redStones: arrayList&amp;lt;Stone&amp;gt;&lt;/div&gt;&lt;div&gt;&lt;br&gt;&lt;/div&gt;" style="text;strokeColor=none;fillColor=none;align=left;verticalAlign=top;spacingLeft=4;spacingRight=4;overflow=hidden;rotatable=0;points=[[0,0.5],[1,0.5]];portConstraint=eastwest;whiteSpace=wrap;html=1;" vertex="1" parent="XhUrj2FuMBCzPirkV3zL-6">
          <mxGeometry y="26" width="180" height="94" as="geometry" />
        </mxCell>
        <mxCell id="hZAI1_AdC-2y4Ru0i8en-5" style="edgeStyle=orthogonalEdgeStyle;rounded=0;orthogonalLoop=1;jettySize=auto;html=1;exitX=0;exitY=0.5;exitDx=0;exitDy=0;entryX=1;entryY=0.5;entryDx=0;entryDy=0;" parent="WIyWlLk6GJQsqaUBKTNV-1" source="kqOdI_GbfpD3FpPk4naM-24" target="kqOdI_GbfpD3FpPk4naM-20" edge="1">
          <mxGeometry relative="1" as="geometry" />
        </mxCell>
        <mxCell id="kqOdI_GbfpD3FpPk4naM-24" value="User" style="swimlane;fillColor=#d5e8d4;strokeColor=#82b366;" parent="WIyWlLk6GJQsqaUBKTNV-1" vertex="1">
          <mxGeometry x="624" y="-2320" width="350" height="438" as="geometry" />
        </mxCell>
        <mxCell id="kqOdI_GbfpD3FpPk4naM-69" value="Class Player" style="swimlane;fontStyle=0;childLayout=stackLayout;horizontal=1;startSize=26;fillColor=#dae8fc;horizontalStack=0;resizeParent=1;resizeParentMax=0;resizeLast=0;collapsible=1;marginBottom=0;html=1;strokeColor=#6c8ebf;" parent="kqOdI_GbfpD3FpPk4naM-24" vertex="1">
          <mxGeometry x="14.5" y="30" width="321" height="130" as="geometry">
            <mxRectangle x="29" y="-640" width="110" height="30" as="alternateBounds" />
          </mxGeometry>
        </mxCell>
        <mxCell id="kqOdI_GbfpD3FpPk4naM-70" value="isWinner: boolean (true when game ends)" style="text;strokeColor=none;fillColor=none;align=left;verticalAlign=top;spacingLeft=4;spacingRight=4;overflow=hidden;rotatable=0;points=[[0,0.5],[1,0.5]];portConstraint=eastwest;whiteSpace=wrap;html=1;" parent="kqOdI_GbfpD3FpPk4naM-69" vertex="1">
          <mxGeometry y="26" width="321" height="26" as="geometry" />
        </mxCell>
        <mxCell id="kqOdI_GbfpD3FpPk4naM-71" value="isActive: boolean (true when it is this players turn)&lt;div&gt;&lt;br&gt;&lt;/div&gt;&lt;div&gt;METHODS:&lt;/div&gt;&lt;div&gt;endTurn()&lt;/div&gt;&lt;div&gt;&lt;br&gt;&lt;/div&gt;" style="text;strokeColor=none;fillColor=none;align=left;verticalAlign=top;spacingLeft=4;spacingRight=4;overflow=hidden;rotatable=0;points=[[0,0.5],[1,0.5]];portConstraint=eastwest;whiteSpace=wrap;html=1;" parent="kqOdI_GbfpD3FpPk4naM-69" vertex="1">
          <mxGeometry y="52" width="321" height="78" as="geometry" />
        </mxCell>
        <mxCell id="hZAI1_AdC-2y4Ru0i8en-4" style="edgeStyle=orthogonalEdgeStyle;rounded=0;orthogonalLoop=1;jettySize=auto;html=1;exitX=0.75;exitY=0.1;exitDx=0;exitDy=0;exitPerimeter=0;entryX=0;entryY=1;entryDx=0;entryDy=0;" parent="WIyWlLk6GJQsqaUBKTNV-1" source="kqOdI_GbfpD3FpPk4naM-28" target="kqOdI_GbfpD3FpPk4naM-24" edge="1">
          <mxGeometry relative="1" as="geometry" />
        </mxCell>
        <mxCell id="kqOdI_GbfpD3FpPk4naM-28" value="User" style="shape=umlActor;verticalLabelPosition=bottom;verticalAlign=top;html=1;outlineConnect=0;" parent="WIyWlLk6GJQsqaUBKTNV-1" vertex="1">
          <mxGeometry x="574" y="-1690" width="30" height="60" as="geometry" />
        </mxCell>
        <mxCell id="kqOdI_GbfpD3FpPk4naM-47" value="Graphic User Interface" style="swimlane;fillColor=#d5e8d4;strokeColor=#82b366;" parent="WIyWlLk6GJQsqaUBKTNV-1" vertex="1">
          <mxGeometry x="124" y="-1790" width="360" height="320" as="geometry" />
        </mxCell>
        <mxCell id="kqOdI_GbfpD3FpPk4naM-61" value="Game Rendering" style="swimlane;fontStyle=0;childLayout=stackLayout;horizontal=1;startSize=26;fillColor=#dae8fc;horizontalStack=0;resizeParent=1;resizeParentMax=0;resizeLast=0;collapsible=1;marginBottom=0;html=1;strokeColor=#6c8ebf;" parent="kqOdI_GbfpD3FpPk4naM-47" vertex="1">
          <mxGeometry x="9" y="41" width="140" height="104" as="geometry" />
        </mxCell>
        <mxCell id="kqOdI_GbfpD3FpPk4naM-62" value="renderMove()" style="text;strokeColor=none;fillColor=none;align=left;verticalAlign=top;spacingLeft=4;spacingRight=4;overflow=hidden;rotatable=0;points=[[0,0.5],[1,0.5]];portConstraint=eastwest;whiteSpace=wrap;html=1;" parent="kqOdI_GbfpD3FpPk4naM-61" vertex="1">
          <mxGeometry y="26" width="140" height="26" as="geometry" />
        </mxCell>
        <mxCell id="kqOdI_GbfpD3FpPk4naM-63" value="isCapture()" style="text;strokeColor=none;fillColor=none;align=left;verticalAlign=top;spacingLeft=4;spacingRight=4;overflow=hidden;rotatable=0;points=[[0,0.5],[1,0.5]];portConstraint=eastwest;whiteSpace=wrap;html=1;" parent="kqOdI_GbfpD3FpPk4naM-61" vertex="1">
          <mxGeometry y="52" width="140" height="26" as="geometry" />
        </mxCell>
        <mxCell id="kqOdI_GbfpD3FpPk4naM-64" value="setPlayerTurn()" style="text;strokeColor=none;fillColor=none;align=left;verticalAlign=top;spacingLeft=4;spacingRight=4;overflow=hidden;rotatable=0;points=[[0,0.5],[1,0.5]];portConstraint=eastwest;whiteSpace=wrap;html=1;" parent="kqOdI_GbfpD3FpPk4naM-61" vertex="1">
          <mxGeometry y="78" width="140" height="26" as="geometry" />
        </mxCell>
        <mxCell id="kqOdI_GbfpD3FpPk4naM-56" value="Player Rendering" style="swimlane;fontStyle=0;childLayout=stackLayout;horizontal=1;startSize=26;fillColor=#dae8fc;horizontalStack=0;resizeParent=1;resizeParentMax=0;resizeLast=0;collapsible=1;marginBottom=0;html=1;strokeColor=#6c8ebf;" parent="kqOdI_GbfpD3FpPk4naM-47" vertex="1">
          <mxGeometry x="210" y="41" width="140" height="78" as="geometry" />
        </mxCell>
        <mxCell id="kqOdI_GbfpD3FpPk4naM-57" value="placeStone()" style="text;strokeColor=none;fillColor=none;align=left;verticalAlign=top;spacingLeft=4;spacingRight=4;overflow=hidden;rotatable=0;points=[[0,0.5],[1,0.5]];portConstraint=eastwest;whiteSpace=wrap;html=1;" parent="kqOdI_GbfpD3FpPk4naM-56" vertex="1">
          <mxGeometry y="26" width="140" height="26" as="geometry" />
        </mxCell>
        <mxCell id="kqOdI_GbfpD3FpPk4naM-59" value="playerInfo()" style="text;strokeColor=none;fillColor=none;align=left;verticalAlign=top;spacingLeft=4;spacingRight=4;overflow=hidden;rotatable=0;points=[[0,0.5],[1,0.5]];portConstraint=eastwest;whiteSpace=wrap;html=1;" parent="kqOdI_GbfpD3FpPk4naM-56" vertex="1">
          <mxGeometry y="52" width="140" height="26" as="geometry" />
        </mxCell>
        <mxCell id="hZAI1_AdC-2y4Ru0i8en-0" style="edgeStyle=orthogonalEdgeStyle;rounded=0;orthogonalLoop=1;jettySize=auto;html=1;entryX=0.5;entryY=0.5;entryDx=0;entryDy=0;entryPerimeter=0;" parent="WIyWlLk6GJQsqaUBKTNV-1" source="kqOdI_GbfpD3FpPk4naM-22" target="kqOdI_GbfpD3FpPk4naM-28" edge="1">
          <mxGeometry relative="1" as="geometry" />
        </mxCell>
        <mxCell id="hZAI1_AdC-2y4Ru0i8en-1" style="edgeStyle=orthogonalEdgeStyle;rounded=0;orthogonalLoop=1;jettySize=auto;html=1;entryX=0.5;entryY=0.5;entryDx=0;entryDy=0;entryPerimeter=0;" parent="WIyWlLk6GJQsqaUBKTNV-1" source="kqOdI_GbfpD3FpPk4naM-47" target="kqOdI_GbfpD3FpPk4naM-28" edge="1">
          <mxGeometry relative="1" as="geometry" />
        </mxCell>
        <mxCell id="hZAI1_AdC-2y4Ru0i8en-7" style="edgeStyle=orthogonalEdgeStyle;rounded=0;orthogonalLoop=1;jettySize=auto;html=1;exitX=1;exitY=0;exitDx=0;exitDy=0;entryX=0.25;entryY=0.1;entryDx=0;entryDy=0;entryPerimeter=0;" parent="WIyWlLk6GJQsqaUBKTNV-1" source="kqOdI_GbfpD3FpPk4naM-47" target="kqOdI_GbfpD3FpPk4naM-28" edge="1">
          <mxGeometry relative="1" as="geometry">
            <Array as="points">
              <mxPoint x="529" y="-1790" />
              <mxPoint x="529" y="-1684" />
            </Array>
          </mxGeometry>
        </mxCell>
        <mxCell id="hZAI1_AdC-2y4Ru0i8en-8" value="Green is our architectural pattern (Modular Monolith)" style="text;html=1;align=center;verticalAlign=middle;whiteSpace=wrap;rounded=0;fontSize=20;" parent="WIyWlLk6GJQsqaUBKTNV-1" vertex="1">
          <mxGeometry x="124" y="-1480" width="276" height="80" as="geometry" />
        </mxCell>
        <mxCell id="hZAI1_AdC-2y4Ru0i8en-9" value="Blue is our class diagrams" style="text;html=1;align=center;verticalAlign=middle;whiteSpace=wrap;rounded=0;fontSize=20;" parent="WIyWlLk6GJQsqaUBKTNV-1" vertex="1">
          <mxGeometry x="400" y="-1480" width="276" height="80" as="geometry" />
        </mxCell>
      </root>
    </mxGraphModel>
  </diagram>
</mxfile>
